<svg viewBox="0 0 114 32" xmlns="http://www.w3.org/2000/svg"><path d="M112.47 29.045v-.225c.83 0 1.527.66 1.527 1.526 0 .881-.696 1.542-1.527 1.542-.834 0-1.535-.66-1.535-1.542 0-.866.7-1.526 1.535-1.526v.225c-.712 0-1.258.567-1.258 1.3 0 .751.546 1.317 1.258 1.317.704 0 1.25-.566 1.25-1.316 0-.734-.546-1.301-1.25-1.301zm-.317.636v1.567h-.277v-1.793h.688c.423 0 .623.168.623.513 0 .324-.204.46-.469.488l.51.792h-.297l-.485-.771h-.293v-.225h.29c.243 0 .467-.013.467-.296 0-.238-.204-.275-.39-.275h-.367zm-44.177-3.28v-1.36c2.057 0 3.381 1.373 3.381 3.471 0 2.085-1.324 3.459-3.381 3.459-2.045 0-3.37-1.374-3.37-3.459 0-2.098 1.325-3.47 3.37-3.47v1.36c-1.212 0-1.578 1.055-1.578 2.11 0 1.043.366 2.098 1.578 2.098 1.224 0 1.59-1.055 1.59-2.098 0-1.055-.366-2.11-1.59-2.11zm19.857.538v3.42l-1.792-1.08v-.674c-.303.267-.934.28-1.49.382-.554.114-1.059.304-1.059.966 0 .674.517.84 1.098.84 1.4 0 1.45-1.12 1.45-1.514l1.793 1.08c0 .598.063 1.196.227 1.463h-1.817a2.67 2.67 0 0 1-.127-.636c-.567.598-1.4.814-2.195.814-1.237 0-2.221-.623-2.221-1.971 0-1.487 1.11-1.843 2.22-1.996 1.099-.166 2.12-.127 2.12-.864 0-.776-.53-.89-1.16-.89-.682 0-1.123.28-1.186.99h-1.792c.1-1.69 1.602-2.198 3.066-2.198 1.3 0 2.865.292 2.865 1.868zM60.645 15.55v3.42l-1.792-1.08v-.674c-.303.267-.934.28-1.49.381-.554.115-1.059.306-1.059.966 0 .674.517.84 1.098.84 1.4 0 1.45-1.12 1.45-1.514l1.793 1.081c0 .598.063 1.195.227 1.463h-1.818a2.695 2.695 0 0 1-.126-.636c-.568.597-1.4.813-2.195.813-1.237 0-2.221-.623-2.221-1.97 0-1.488 1.11-1.844 2.22-1.997 1.098-.165 2.12-.127 2.12-.864 0-.776-.53-.89-1.16-.89-.682 0-1.123.28-1.186.991h-1.793c.102-1.69 1.603-2.199 3.067-2.199 1.3 0 2.865.292 2.865 1.87zm25.193 1.998H81.13v-1.145h2.915c-.164-.915-.555-1.398-1.425-1.398-1.136 0-1.464.89-1.49 1.398v1.145c.05 1.144.606 1.665 1.603 1.665.72 0 1.3-.444 1.414-.852h1.576c-.504 1.551-1.576 2.213-3.053 2.213-2.057 0-3.331-1.424-3.331-3.458 0-1.971 1.35-3.472 3.33-3.472 2.222 0 3.294 1.882 3.168 3.904zm-10.613 0h-4.707v-1.145h2.915c-.164-.915-.555-1.398-1.425-1.398-1.137 0-1.464.89-1.49 1.398v1.145c.05 1.144.606 1.665 1.603 1.665.72 0 1.3-.444 1.414-.852h1.576c-.504 1.551-1.576 2.213-3.053 2.213-2.057 0-3.331-1.424-3.331-3.458 0-1.971 1.35-3.472 3.33-3.472 2.222 0 3.294 1.882 3.168 3.904zM48.277 7.057h-3.37l.518-1.488h2.335l-1.136-3.331h-.025l-1.174 3.331-.517 1.488-.707 2.021h-2.007L45.614 0h2.032l3.37 9.078h-2.058l-.681-2.021zm3.278-4.552h1.691v.89h.025c.467-.674 1.149-1.068 1.994-1.068.82 0 1.552.305 1.906 1.093.378-.572 1.06-1.093 1.968-1.093 1.388 0 2.385.648 2.385 2.352v4.4h-1.792V5.352c0-.878-.076-1.602-1.097-1.602-1.01 0-1.2.839-1.2 1.665v3.662h-1.791V5.391c0-.763.05-1.64-1.086-1.64-.352 0-1.21.228-1.21 1.513v3.814h-1.793V2.505zM68.61 6.23h-4.707V5.086h2.916c-.165-.916-.556-1.399-1.427-1.399-1.136 0-1.464.89-1.49 1.399V6.23c.051 1.144.607 1.666 1.604 1.666.719 0 1.3-.445 1.413-.853h1.578c-.505 1.552-1.578 2.214-3.054 2.214-2.057 0-3.332-1.425-3.332-3.46 0-1.97 1.35-3.47 3.332-3.47 2.22 0 3.293 1.881 3.167 3.903zm.686-3.725h1.703v1.22h.025c.329-.826 1.212-1.398 2.083-1.398.126 0 .277.025.39.063v1.678a3.263 3.263 0 0 0-.643-.063c-1.312 0-1.766.954-1.766 2.11v2.963h-1.792V2.505zm4.755 6.574V2.505h1.792v6.574H74.05zm0-7.592V0h1.792v1.487H74.05zm7.205 3.332c-.114-.737-.58-1.132-1.325-1.132-1.149 0-1.527 1.17-1.527 2.136 0 .941.366 2.073 1.489 2.073.833 0 1.312-.534 1.426-1.336h1.729c-.227 1.742-1.426 2.697-3.142 2.697-1.969 0-3.294-1.4-3.294-3.37 0-2.047 1.212-3.56 3.331-3.56 1.54 0 2.953.813 3.067 2.492h-1.754zm8.25-.623v3.42l-1.792-1.08V5.86c-.303.268-.934.28-1.49.382-.555.114-1.06.305-1.06.967 0 .674.518.838 1.099.838 1.4 0 1.45-1.118 1.45-1.512l1.793 1.08c0 .598.063 1.196.227 1.462h-1.818a2.696 2.696 0 0 1-.125-.635c-.569.597-1.401.814-2.196.814-1.237 0-2.221-.624-2.221-1.971 0-1.488 1.11-1.844 2.22-1.997 1.098-.165 2.12-.127 2.12-.864 0-.776-.53-.89-1.16-.89-.681 0-1.123.28-1.186.992h-1.792c.1-1.692 1.603-2.2 3.066-2.2 1.3 0 2.865.293 2.865 1.869zm1.184-1.69h1.704v.914h.037c.455-.737 1.237-1.093 1.994-1.093 1.906 0 2.385 1.08 2.385 2.708v4.043h-1.791V5.366c0-1.081-.316-1.615-1.149-1.615-.972 0-1.388.547-1.388 1.882v3.445h-1.792V2.505zM43.305 11.33h3.887c2.335 0 4.089 1.475 4.089 4.488 0 2.632-1.338 4.59-4.089 4.59h-3.887l1.981-1.678h1.767c1.149 0 2.247-.712 2.247-2.72 0-1.831-.632-3.001-2.6-3.001h-1.414v5.721l-1.98 1.679V11.33zm8.703 9.08v-6.575H53.8v6.574h-1.792zm0-7.592V11.33H53.8v1.488h-1.792zm14.568 4.31c0-1.106-.467-2.11-1.527-2.11-1.06 0-1.526 1.004-1.526 2.11 0 1.094.467 2.098 1.526 2.098 1.06 0 1.527-1.004 1.527-2.098l1.793-.012c0 2.416-1.402 3.471-2.701 3.471-.96 0-1.754-.293-2.146-1.018h-.025v.84h-1.703V11.33h1.792v3.306h.025c.441-.674 1.249-.979 2.056-.979 1.3 0 2.701 1.056 2.701 3.459l-1.792.012zM78 13.836h1.313v1.208h-1.313V18.3c0 .61.151.763.757.763.19 0 .366-.013.556-.051v1.412c-.303.05-.694.063-1.048.063-1.098 0-2.057-.254-2.057-1.564v-3.878h-1.085v-1.208h1.085v-1.97H78v1.97zm9.986 4.438c.013.788.668 1.106 1.375 1.106.518 0 1.174-.204 1.174-.839 0-.547-.745-.738-2.032-1.017-1.035-.23-2.07-.598-2.07-1.755 0-1.678 1.44-2.11 2.84-2.11 1.426 0 2.738.482 2.877 2.097h-1.704c-.05-.7-.58-.89-1.224-.89-.403 0-.996.076-.996.61 0 .649 1.01.738 2.031.98 1.048.241 2.07.622 2.07 1.843 0 1.73-1.49 2.29-2.978 2.29-1.515 0-2.99-.573-3.067-2.315h1.704zM48.225 29.77h-3.37l.519-1.487h2.334l-1.136-3.332h-.025l-1.173 3.332-.518 1.487-.706 2.022h-2.007l3.42-9.078h2.032l3.369 9.078h-2.057l-.681-2.022zm4.718-.115c.013.79.67 1.107 1.376 1.107.517 0 1.173-.203 1.173-.84 0-.546-.744-.737-2.032-1.016-1.034-.23-2.069-.598-2.069-1.755 0-1.679 1.439-2.11 2.84-2.11 1.425 0 2.738.482 2.877 2.097h-1.704c-.05-.699-.58-.89-1.224-.89-.404 0-.997.076-.997.61 0 .649 1.01.738 2.031.979 1.048.242 2.07.624 2.07 1.844 0 1.73-1.489 2.289-2.978 2.289-1.514 0-2.99-.572-3.066-2.315h1.704zm6.775 0c.013.79.669 1.107 1.376 1.107.517 0 1.173-.203 1.173-.84 0-.546-.744-.737-2.031-1.016-1.035-.23-2.07-.598-2.07-1.755 0-1.679 1.438-2.11 2.84-2.11 1.425 0 2.738.482 2.876 2.097H62.18c-.05-.699-.58-.89-1.224-.89-.404 0-.997.076-.997.61 0 .649 1.01.738 2.032.979 1.047.242 2.07.624 2.07 1.844 0 1.73-1.49 2.289-2.98 2.289-1.513 0-2.99-.572-3.065-2.315h1.703zm16.978-2.122c-.113-.738-.58-1.132-1.325-1.132-1.148 0-1.526 1.17-1.526 2.135 0 .942.365 2.074 1.488 2.074.833 0 1.313-.535 1.427-1.336h1.728c-.227 1.742-1.426 2.696-3.142 2.696-1.968 0-3.294-1.399-3.294-3.37 0-2.047 1.212-3.56 3.332-3.56 1.54 0 2.953.814 3.066 2.493h-1.754zm2.547 4.259v-6.574h1.792v6.574h-1.792zm0-7.59v-1.488h1.792v1.487h-1.792zm11.7 1.016h1.312v1.208h-1.312v3.255c0 .61.15.763.757.763.189 0 .365-.013.555-.05v1.41a6.809 6.809 0 0 1-1.048.064c-1.097 0-2.057-.254-2.057-1.564v-3.878h-1.085v-1.208h1.085v-1.97h1.793v1.97zm2.167 6.574V25.22h1.793v6.574H93.11zm0-7.59v-1.488h1.793v1.487H93.11zm6.015 2.199v-1.36c2.057 0 3.381 1.373 3.381 3.47 0 2.086-1.324 3.459-3.381 3.459-2.045 0-3.37-1.373-3.37-3.458 0-2.098 1.325-3.471 3.37-3.471v1.36c-1.212 0-1.578 1.055-1.578 2.11 0 1.043.366 2.099 1.578 2.099 1.224 0 1.59-1.056 1.59-2.098 0-1.056-.366-2.111-1.59-2.111zm4.235-1.183h1.704v.916h.038c.454-.738 1.236-1.094 1.993-1.094 1.906 0 2.386 1.08 2.386 2.708v4.044h-1.792V28.08c0-1.081-.315-1.615-1.149-1.615-.97 0-1.387.547-1.387 1.882v3.446h-1.793V25.22zm-64.458 3.826v-.225c.83 0 1.527.66 1.527 1.526 0 .882-.696 1.542-1.527 1.542-.834 0-1.534-.66-1.534-1.542 0-.866.7-1.526 1.534-1.526v.225c-.712 0-1.257.567-1.257 1.301 0 .75.545 1.316 1.257 1.316.705 0 1.25-.566 1.25-1.316 0-.734-.545-1.3-1.25-1.3zm-.317.636v1.568h-.277v-1.793h.688c.423 0 .623.168.623.512 0 .324-.203.46-.468.488l.508.793h-.297l-.484-.772h-.293v-.225h.289c.244 0 .468-.013.468-.296 0-.237-.203-.275-.39-.275h-.367zM18.213 14.155l-6.106 10.767h12.212l-4.173 6.973H-.004l10.177-17.74h8.04zm-3.97-7.076l3.97-6.87L36.43 31.894h-8.142L14.244 7.08z" fill="#fff" fill-rule="evenodd"/></svg>