<?xml version="1.0" standalone="no"?>
<!DOCTYPE svg PUBLIC "-//W3C//DTD SVG 20010904//EN"
 "http://www.w3.org/TR/2001/REC-SVG-20010904/DTD/svg10.dtd">
<svg version="1.0" xmlns="http://www.w3.org/2000/svg"
 width="260.000000pt" height="260.000000pt" viewBox="0 0 260.000000 260.000000"
 preserveAspectRatio="xMidYMid meet">
<metadata>
Created by potrace 1.11, written by Peter Selinger 2001-2013
</metadata>
<g transform="translate(0.000000,260.000000) scale(0.100000,-0.100000)"
fill="#000000" stroke="none">
<path d="M1395 2363 c-62 -72 -362 -394 -403 -432 -33 -32 -36 -39 -35 -90 1
-74 12 -123 31 -138 23 -19 136 -17 152 2 12 14 16 13 37 -6 12 -13 23 -26 23
-31 0 -4 -24 -8 -54 -8 l-53 0 -216 -387 -216 -388 56 -5 56 -5 -231 -223
c-140 -134 -238 -222 -250 -222 -39 0 -67 -149 -42 -216 13 -33 64 -84 85 -84
8 0 15 -7 15 -15 0 -11 12 -15 50 -15 38 0 50 4 50 15 0 8 5 15 11 15 6 0 26
17 44 37 18 21 187 215 376 432 l344 394 3 -56 3 -57 125 0 126 0 -6 27 c-3
16 -12 97 -22 181 l-16 154 33 34 c41 42 57 43 96 2 27 -29 31 -42 36 -105 17
-211 159 -315 410 -300 83 4 199 32 235 56 8 5 32 93 57 206 35 163 46 201 64
215 24 17 38 81 27 123 -3 13 -17 36 -31 50 -24 23 -25 29 -16 63 6 21 7 41 3
45 -15 13 -110 32 -192 38 l-85 6 -238 245 c-224 231 -237 246 -237 282 0 21
5 38 10 38 6 0 10 11 10 25 0 14 -4 25 -9 25 -5 0 -12 14 -16 31 -4 16 -20 43
-36 60 -24 24 -36 29 -76 29 -44 -1 -51 -4 -88 -47z m141 -60 c9 -13 11 -37 7
-83 l-5 -65 81 -79 c44 -44 81 -88 81 -98 0 -10 6 -17 13 -16 6 2 11 -4 9 -12
-2 -8 0 -11 4 -7 11 11 234 -214 234 -235 0 -10 7 -18 15 -18 8 0 15 -8 14
-17 0 -11 -3 -13 -6 -5 -2 6 -18 12 -34 12 -22 0 -29 -5 -29 -19 0 -13 -11
-23 -34 -31 -106 -35 -214 -141 -257 -253 -19 -50 -39 -75 -39 -48 0 5 -36 44
-81 87 -101 99 -112 119 -103 190 l6 54 -68 0 -69 1 -44 50 c-33 38 -41 53
-32 62 14 14 14 44 0 52 -16 10 -59 -4 -59 -19 0 -7 -11 -18 -25 -24 -14 -6
-25 -16 -25 -22 0 -5 -13 -10 -30 -10 -19 0 -30 5 -30 14 0 8 -7 16 -15 20 -9
3 -15 18 -15 40 0 39 -1 37 275 334 l150 162 49 0 c35 0 53 -5 62 -17z m554
-843 c0 -16 7 -20 30 -20 23 0 30 4 30 20 0 17 5 19 33 13 17 -3 54 -14 81
-24 48 -18 48 -18 54 4 5 19 7 17 18 -13 11 -32 10 -37 -14 -62 l-26 -28 -152
0 c-195 0 -214 -4 -214 -41 0 -16 5 -29 11 -29 6 0 9 -10 6 -22 -3 -13 -8 -38
-12 -55 l-7 -33 72 0 73 0 -7 -31 c-8 -42 -46 -88 -74 -88 -63 -2 -116 44
-132 114 -7 32 -6 35 16 35 20 0 24 5 24 30 0 24 -4 30 -21 30 -19 0 -21 4
-15 32 17 84 80 151 163 174 64 17 63 17 63 -6z m-930 -202 c-27 -27 -56 -48
-65 -48 -20 0 -23 -10 45 138 l55 119 6 -81 7 -81 -48 -47z m305 91 c-8 -15
-19 -30 -24 -33 -10 -6 -21 40 -21 87 l0 31 30 -29 c28 -26 28 -29 15 -56z
m-255 -129 c0 -5 -5 -10 -11 -10 -5 0 -7 5 -4 10 3 6 8 10 11 10 2 0 4 -4 4
-10z m-382 -605 l-363 -415 -52 0 c-29 0 -53 5 -53 10 0 6 -9 10 -19 10 -20 0
-31 18 -31 51 0 10 -4 19 -10 19 -5 0 -10 11 -10 23 0 17 37 60 132 153 73 71
198 193 278 272 136 132 148 142 184 142 37 0 38 1 72 75 l35 75 99 0 100 0
-362 -415z"/>
<path d="M1460 2110 c0 -27 3 -30 30 -30 27 0 30 3 30 30 0 27 -3 30 -30 30
-27 0 -30 -3 -30 -30z"/>
<path d="M1370 2020 c0 -27 3 -30 30 -30 27 0 30 3 30 30 0 27 -3 30 -30 30
-27 0 -30 -3 -30 -30z"/>
<path d="M1300 1940 c0 -27 3 -30 30 -30 27 0 30 3 30 30 0 27 -3 30 -30 30
-27 0 -30 -3 -30 -30z"/>
<path d="M1650 1920 c0 -27 3 -30 30 -30 27 0 30 3 30 30 0 27 -3 30 -30 30
-27 0 -30 -3 -30 -30z"/>
<path d="M1220 1870 c0 -27 3 -30 30 -30 27 0 30 3 30 30 0 27 -3 30 -30 30
-27 0 -30 -3 -30 -30z"/>
<path d="M1550 1830 c0 -27 3 -30 30 -30 27 0 30 3 30 30 0 27 -3 30 -30 30
-27 0 -30 -3 -30 -30z"/>
<path d="M1450 1730 c0 -27 3 -30 30 -30 27 0 30 3 30 30 0 27 -3 30 -30 30
-27 0 -30 -3 -30 -30z"/>
<path d="M2010 1390 c0 -27 3 -30 30 -30 27 0 30 3 30 30 0 27 -3 30 -30 30
-27 0 -30 -3 -30 -30z"/>
<path d="M363 1655 c-156 -48 -233 -177 -191 -318 16 -53 64 -100 141 -138 77
-38 107 -66 107 -96 0 -62 -113 -69 -227 -13 -36 18 -66 30 -68 28 -2 -1 -12
-45 -23 -96 l-20 -93 36 -15 c82 -35 155 -47 254 -42 84 4 106 9 162 37 99 48
138 110 138 219 -1 88 -29 135 -112 189 -140 91 -140 91 -140 122 0 22 6 31
30 41 40 16 122 6 188 -25 59 -27 51 -36 77 88 10 43 15 80 13 83 -3 2 -40 13
-83 24 -90 23 -218 26 -282 5z"/>
</g>
</svg>
